<svg id="Capa_1" enable-background="new 0 0 512 512" height="512" viewBox="0 0 512 512" width="512" xmlns="http://www.w3.org/2000/svg"><g id="Chat_1_"><path d="m352 144c0 16.959-3.52 33.279-10.24 48.32-24.321 56-89.28 95.68-165.76 95.68-1.92 0-3.84 0-5.76-.32-11.201 0-22.08-1.279-32.32-3.199-17.6 21.439-43.84 35.519-73.92 35.519h-32l6.721-3.52c21.439-10.56 37.759-27.841 47.359-48.64-51.519-25.281-86.08-71.041-86.08-123.84 0-79.68 78.721-144 176-144s176 64.32 176 144z" fill="#ff4db3"/><path d="m473.279 508.48 6.721 3.52h-32c-30.08 0-56.32-14.08-73.92-35.52-12.16 2.239-24.961 3.52-38.08 3.52-97.279 0-176-64.32-176-144 0-16.961 3.52-33.281 10.24-48.32 1.92.32 3.84.32 5.76.32 76.48 0 141.439-39.68 165.76-95.68 94.72 2.239 170.24 65.6 170.24 143.68 0 52.799-34.561 98.559-86.08 123.84 9.6 20.799 25.92 38.08 47.359 48.64z" fill="#ff8de4"/><path d="m341.76 192.32c-24.321 56-89.28 95.68-165.76 95.68-1.92 0-3.84 0-5.76-.32 24.321-56 89.28-95.68 165.76-95.68 1.92 0 3.84 0 5.76.32z" fill="#ff0068"/><path d="m96 128h32v32h-32z" fill="#ff8de4"/><path d="m160 128h32v32h-32z" fill="#ff8de4"/><path d="m224 128h32v32h-32z" fill="#ff8de4"/><g fill="#ff4db3"><path d="m256 320h32v32h-32z"/><path d="m320 320h32v32h-32z"/><path d="m384 320h32v32h-32z"/></g></g></svg>